<?xml version="1.0" encoding="UTF-8" standalone="no"?>
<!-- Created with Inkscape (http://www.inkscape.org/) -->

<svg
   xmlns:dc="http://purl.org/dc/elements/1.1/"
   xmlns:cc="http://creativecommons.org/ns#"
   xmlns:rdf="http://www.w3.org/1999/02/22-rdf-syntax-ns#"
   xmlns:svg="http://www.w3.org/2000/svg"
   xmlns="http://www.w3.org/2000/svg"
   xmlns:sodipodi="http://sodipodi.sourceforge.net/DTD/sodipodi-0.dtd"
   xmlns:inkscape="http://www.inkscape.org/namespaces/inkscape"
   width="1162.0001"
   height="402.85995"
   viewBox="0 0 307.44585 106.59002"
   version="1.1"
   id="svg8"
   inkscape:version="0.92.0 r15299"
   sodipodi:docname="baker mckenzie2.svg">
  <defs
     id="defs2">
    <style
       id="style18">.cls-1{fill:#ee3135;}.cls-2{fill:#ae132a;}</style>
  </defs>
  <sodipodi:namedview
     id="base"
     pagecolor="#ffffff"
     bordercolor="#666666"
     borderopacity="1.0"
     inkscape:pageopacity="0.0"
     inkscape:pageshadow="2"
     inkscape:zoom="0.77327585"
     inkscape:cx="580.00001"
     inkscape:cy="200.43001"
     inkscape:document-units="mm"
     inkscape:current-layer="layer1"
     showgrid="false"
     fit-margin-top="0"
     fit-margin-left="0"
     fit-margin-right="0"
     fit-margin-bottom="0"
     units="px"
     inkscape:window-width="1280"
     inkscape:window-height="744"
     inkscape:window-x="-4"
     inkscape:window-y="-4"
     inkscape:window-maximized="1" />
  <metadata
     id="metadata5">
    <rdf:RDF>
      <cc:Work
         rdf:about="">
        <dc:format>image/svg+xml</dc:format>
        <dc:type
           rdf:resource="http://purl.org/dc/dcmitype/StillImage" />
        <dc:title></dc:title>
      </cc:Work>
    </rdf:RDF>
  </metadata>
  <g
     inkscape:label="Layer 1"
     inkscape:groupmode="layer"
     id="layer1"
     transform="translate(-8.3154741,-94.940373)">
    <g
       id="g126"
       transform="translate(0.26459673,-0.26461364)">
      <path
         style="fill:#ee3135;stroke-width:0.26458332"
         inkscape:connector-curvature="0"
         class="cls-1"
         d="m 26.571724,124.99442 v 12.88256 h 2.399771 q 5.961062,0 8.035395,-1.50283 2.074334,-1.50284 2.074334,-4.37357 0,-3.24643 -2.434167,-5.12498 -2.434167,-1.87854 -8.085666,-1.87854 z m 0,-19.13467 v 10.58333 h 2.092854 q 3.497792,0 5.196417,-1.46843 1.698625,-1.46844 1.706562,-3.99257 0,-2.35743 -1.613958,-3.7412 -1.613959,-1.38378 -4.905375,-1.38378 z m -9.562042,41.14006 V 96.734271 h 7.903104 q 6.879167,0 10.054167,0.889 4.516437,1.195917 7.186083,4.442359 a 11.684,11.684 0 0 1 2.674938,7.65439 11.160125,11.160125 0 0 1 -1.211792,5.21229 q -1.214437,2.34157 -3.947583,4.39209 4.579937,2.1537 6.696604,5.38162 2.116666,3.22792 2.116666,7.63852 a 14.226646,14.226646 0 0 1 -2.188104,7.72319 13.977937,13.977937 0 0 1 -5.643562,5.21229 q -3.455458,1.72508 -9.543521,1.72508 z"
         id="path24" />
      <path
         style="fill:#ee3135;stroke-width:0.26458332"
         inkscape:connector-curvature="0"
         class="cls-1"
         d="m 70.593098,117.47496 q -4.325937,0 -7.186083,3.05858 -2.860146,3.05859 -2.862792,7.84225 0,4.81806 2.910417,7.9375 a 9.4350415,9.4350415 0 0 0 7.170208,3.10886 q 4.392084,0 7.286625,-3.05859 2.894542,-3.05858 2.899834,-8.02216 0,-4.85246 -2.894542,-7.85813 -2.894542,-3.00567 -7.323667,-3.00831 m 9.805459,-7.6544 h 9.329208 v 37.17925 h -9.329208 v -3.92906 q -2.7305,2.59821 -5.479521,3.74121 a 15.345833,15.345833 0 0 1 -5.955771,1.14564 q -7.201958,0 -12.459229,-5.58535 -5.257271,-5.58535 -5.254625,-13.89062 0,-8.61219 5.085292,-14.11288 5.085291,-5.50069 12.356041,-5.50069 a 15.713604,15.713604 0 0 1 6.278563,1.26471 17.145,17.145 0 0 1 5.426604,3.79413 z"
         id="path26" />
      <polygon
         transform="matrix(0.26458333,0,0,0.26458333,8.3154741,95.469563)"
         style="fill:#ee3135"
         class="cls-1"
         points="394.2,121.59 454.73,54.24 410.46,54.24 358.54,112.17 358.54,0 323.28,0 323.28,194.76 358.54,194.76 358.54,130 418.2,194.76 461.97,194.76 "
         id="polygon28" />
      <path
         style="fill:#ee3135;stroke-width:0.26458332"
         inkscape:connector-curvature="0"
         class="cls-1"
         d="m 154.33637,123.7641 a 9.3583124,9.3583124 0 0 0 -3.64596,-5.05618 10.583333,10.583333 0 0 0 -6.3156,-1.94734 11.168062,11.168062 0 0 0 -6.84478,2.18546 q -1.85208,1.3679 -3.4237,4.81806 z m 9.32921,7.34748 h -29.96936 q 0.64823,3.96875 3.46869,6.30502 2.82046,2.33627 7.19402,2.34157 a 12.435417,12.435417 0 0 0 8.99583,-3.65655 l 7.85813,3.69094 q -2.93952,4.16984 -7.03792,6.16744 -4.09839,1.9976 -9.73931,2.00025 -8.74713,0 -14.25046,-5.51921 -5.50333,-5.51921 -5.50069,-13.82183 0,-8.509 5.48482,-14.12875 5.48481,-5.61975 13.75833,-5.6224 8.78152,0 14.2875,5.6224 5.50598,5.62239 5.48481,14.84577 z"
         id="path30" />
      <path
         style="fill:#ee3135;stroke-width:0.26458332"
         inkscape:connector-curvature="0"
         class="cls-1"
         d="m 167.19512,109.82056 h 7.99571 v 4.68313 q 1.2991,-2.76754 3.43958,-4.20159 a 8.3264374,8.3264374 0 0 1 4.71487,-1.43668 8.7312499,8.7312499 0 0 1 3.79413,0.95779 l -2.91042,8.0301 q -1.64041,-0.82021 -2.69875,-0.82021 -2.15371,0 -3.63802,2.66436 -1.48431,2.66435 -1.48696,10.45633 l 0.0344,1.8124 v 15.03627 h -9.26042 z"
         id="path32" />
      <polygon
         transform="matrix(0.26458333,0,0,0.26458333,8.3154741,95.469563)"
         style="fill:#ae132a"
         class="cls-2"
         points="68.13,207.25 32.89,207.25 0,397.23 35.26,397.23 56.12,277.25 96.12,397.23 127.99,397.23 168.35,277.25 188.72,397.23 223.69,397.23 191.82,207.25 156.61,207.25 112.17,339.76 "
         id="polygon34" />
      <path
         style="fill:#ae132a;stroke-width:0.26458332"
         inkscape:connector-curvature="0"
         class="cls-2"
         d="m 105.76681,170.91021 -7.757587,4.27037 q -2.19075,-2.28864 -4.328583,-3.175 a 13.001625,13.001625 0 0 0 -5.011209,-0.889 q -5.233458,0 -8.466666,3.12209 -3.233208,3.12208 -3.233208,8.001 0,4.74398 3.114145,7.74435 3.114146,3.00038 8.175625,3.00302 6.260042,0 9.749896,-4.27037 l 7.355417,5.02708 q -5.979584,7.77875 -16.880417,7.77875 -9.808104,0 -15.359062,-5.82083 -5.550958,-5.82084 -5.55625,-13.59959 a 19.14525,19.14525 0 0 1 10.234083,-17.08414 q 4.836583,-2.59557 10.816167,-2.59821 5.535083,0 9.943041,2.20398 a 18.878021,18.878021 0 0 1 7.209898,6.27062"
         id="path36" />
      <polygon
         transform="matrix(0.26458333,0,0,0.26458333,8.3154741,95.469563)"
         style="fill:#ae132a"
         class="cls-2"
         points="519.1,397.23 476.22,397.23 417.65,312.82 417.65,397.23 381.1,397.23 381.1,207.25 417.65,207.25 417.65,272.74 469.23,207.25 512.64,207.25 446.31,292.04 "
         id="polygon38" />
      <path
         style="fill:#ae132a;stroke-width:0.26458332"
         inkscape:connector-curvature="0"
         class="cls-2"
         d="m 170.89135,177.33429 a 9.3609582,9.3609582 0 0 0 -3.64596,-5.05619 10.583333,10.583333 0 0 0 -6.31561,-1.94733 11.168062,11.168062 0 0 0 -6.84477,2.18546 q -1.85208,1.36789 -3.4237,4.81806 z m 9.32921,7.34748 H 150.2512 q 0.64823,3.96875 3.46869,6.30502 2.82046,2.33627 7.19402,2.34156 a 12.435417,12.435417 0 0 0 8.99583,-3.65654 l 7.85019,3.69359 q -2.93952,4.16983 -7.03792,6.16743 -4.09839,1.99761 -9.74195,1.99231 -8.74713,0 -14.25046,-5.5192 -5.50334,-5.51921 -5.50069,-13.82184 0,-8.509 5.48481,-14.12875 5.48481,-5.61975 13.75834,-5.62239 8.78152,0 14.2875,5.62239 5.50597,5.6224 5.50068,14.84842 z"
         id="path40" />
      <path
         style="fill:#ae132a;stroke-width:0.26458332"
         inkscape:connector-curvature="0"
         class="cls-2"
         d="m 183.46964,163.39075 h 9.32921 v 3.81 q 3.175,-2.67494 5.74939,-3.72004 a 13.890625,13.890625 0 0 1 5.27315,-1.05834 12.760854,12.760854 0 0 1 9.38212,3.86028 q 3.24115,3.28083 3.24115,9.70491 v 24.56921 h -9.23131 v -16.26923 q 0,-6.65427 -0.59796,-8.83973 -0.59796,-2.18546 -2.07963,-3.32846 a 5.8208333,5.8208333 0 0 0 -3.66448,-1.143 6.8791666,6.8791666 0 0 0 -4.85775,1.89442 q -2.02935,1.89442 -2.81252,5.23875 -0.4101,1.74096 -0.40745,7.54327 v 14.91456 h -9.32392 z"
         id="path42" />
      <polygon
         transform="matrix(0.26458333,0,0,0.26458333,8.3154741,95.469563)"
         style="fill:#ae132a"
         class="cls-2"
         points="910.13,397.23 796.48,397.23 859.9,286.55 806.17,286.55 806.17,256.71 913.75,256.71 850.62,367.39 910.13,367.39 "
         id="polygon44" />
      <path
         style="fill:#ae132a;stroke-width:0.26458332"
         inkscape:connector-curvature="0"
         class="cls-2"
         d="m 294.83012,177.33429 a 9.3583124,9.3583124 0 0 0 -3.64596,-5.05619 10.567458,10.567458 0 0 0 -6.31561,-1.94733 11.168062,11.168062 0 0 0 -6.84477,2.18546 q -1.85208,1.36789 -3.42371,4.81806 z m 9.3292,7.34748 h -29.9667 q 0.64823,3.96875 3.46868,6.30502 2.82046,2.33627 7.19402,2.34156 a 12.435417,12.435417 0 0 0 8.99584,-3.65654 l 7.85812,3.69094 q -2.93952,4.16983 -7.03791,6.16744 -4.0984,1.9976 -9.73932,2.00025 -8.74712,0 -14.25045,-5.51921 -5.50334,-5.51921 -5.50069,-13.82183 0,-8.509 5.48481,-14.12875 5.48481,-5.61975 13.75833,-5.6224 8.78152,0 14.2875,5.6224 5.50598,5.62239 5.50069,14.84841 z"
         id="path46" />
      <rect
         style="fill:#ae132a;stroke-width:0.26458332"
         class="cls-2"
         x="252.73227"
         y="163.39075"
         width="9.3292074"
         height="37.179249"
         id="rect48" />
      <rect
         style="fill:#ae132a;stroke-width:0.26458332"
         class="cls-2"
         x="252.72963"
         y="153.24927"
         width="9.3186255"
         height="7.0484996"
         id="rect50" />
      <rect
         style="fill:#ae132a;stroke-width:0.26458332"
         class="cls-2"
         x="306.44269"
         y="193.48447"
         width="8.7894583"
         height="7.0484996"
         id="rect52" />
    </g>
  </g>
</svg>
